# xmcd CD database file
#
# Track frame offsets:
#	151
#	21477
#	58162
#	92254
#	116453
#	133814
#	162143
#	189512
#	217371
#	239753
#	261148
#	298195
#
# Disc length: 4143 seconds
#
# Revision: 0
# Processed by: cddbd v1.5.1PL2 Copyright (c) Steve Scherf et al.
# Submitted via: CDex 1.51
#
DISCID=bb102d0c
DTITLE=Byron Stripling - If I Could Be With You
DYEAR=1998
DGENRE=Jazz
TTITLE0=On The Sunny Side Of The Street
TTITLE1=Struttin' With Some Barbecue
TTITLE2=Ballad Medley
TTITLE3=I Double Dare You
TTITLE4=I'm Confessin' That I Love You
TTITLE5=St. Louis Blues
TTITLE6=If I Could Be With You
TTITLE7=Medley
TTITLE8=West End Blues
TTITLE9=Big Butter And Egg Man
TTITLE10=Tiger Rag
TTITLE11=When It's Sleepy Time Down South
EXTD=YEAR: 1998
EXTT0=
EXTT1=
EXTT2=
EXTT3=
EXTT4=
EXTT5=
EXTT6=
EXTT7=
EXTT8=
EXTT9=
EXTT10=
EXTT11=
PLAYORDER=
